<svg width="161" height="282" viewBox="0 0 161 282" fill="none" xmlns="http://www.w3.org/2000/svg">
<g clip-path="url(#clip0_8_75)">
<path d="M32.5023 30.1585L27.6676 8.71962L26.0906 1.73546C25.9598 1.1593 25.6053 0.658673 25.1051 0.343692C24.6048 0.0287116 23.9999 -0.0748232 23.4233 0.0558673L21.0416 0.59412L1.94267 4.90007C1.65755 4.96426 1.38787 5.08397 1.14906 5.25236C0.910258 5.42074 0.706996 5.6345 0.550899 5.88142C0.394803 6.12833 0.288936 6.40357 0.239337 6.69139C0.189737 6.97921 0.197385 7.27398 0.261841 7.55885C-0.763492 17.0981 1.26127 25.898 5.65473 34.1337C5.97922 34.7498 6.32319 35.3659 6.68011 35.9819C6.77456 36.4079 6.9937 36.7962 7.30964 37.0973C7.57556 37.3512 7.90011 37.5355 8.25445 37.6339C8.60879 37.7324 8.98197 37.7418 9.34085 37.6615L11.8459 37.0973L13.3904 36.7472L30.8215 32.8173C31.3972 32.6874 31.8976 32.3343 32.2128 31.8357C32.528 31.3371 32.6321 30.7338 32.5023 30.1585Z" fill="#E6E6E6"/>
<path d="M30.5036 28.9652L25.8959 8.57035L24.7927 3.6743C24.6711 3.13525 24.3404 2.66648 23.8731 2.37101C23.4058 2.07553 22.8403 1.97751 22.3007 2.09848L20.834 2.42922L3.83768 6.26174C3.29824 6.38325 2.82913 6.71378 2.53343 7.18071C2.23774 7.64764 2.13964 8.21278 2.2607 8.75195C2.40995 16.1771 3.18872 22.9148 6.3881 27.0262C6.75224 28.6254 7.53374 30.0997 8.65312 31.2991C9.7725 32.4986 11.1898 33.3803 12.7609 33.8548C12.7998 33.8677 12.8323 33.8807 12.8712 33.8937C12.8972 33.9002 12.9297 33.9132 12.9556 33.9196C14.4344 34.3354 15.9937 34.3755 17.4919 34.0364L28.9266 31.4554C29.466 31.3339 29.9351 31.0033 30.2308 30.5364C30.5265 30.0695 30.6246 29.5044 30.5036 28.9652Z" fill="white"/>
<path d="M13.5705 13.0621C13.9466 12.6284 14.4529 12.328 15.014 12.2058C15.575 12.0836 16.1606 12.146 16.6832 12.3838C17.8174 12.9499 18.2574 14.1543 18.0762 15.3519C17.8738 16.6897 17.1745 17.9076 17.1109 19.2774C17.0554 20.4762 17.5025 21.7358 18.5656 22.3812C19.3279 22.844 20.1125 21.6983 19.3466 21.2333C18.0862 20.4681 18.5097 18.7866 18.8753 17.6396C19.3318 16.2074 19.8075 14.7473 19.2428 13.2716C18.9928 12.6538 18.5917 12.1084 18.0763 11.6854C17.5609 11.2625 16.9476 10.9754 16.2925 10.8505C15.6374 10.7255 14.9613 10.7668 14.3263 10.9704C13.6912 11.1739 13.1174 11.5334 12.6572 12.0159C12.0558 12.6639 12.9615 13.7183 13.5705 13.0621Z" fill="#F9D162"/>
<path d="M19.6887 26.3814C20.4559 26.3814 21.0778 25.76 21.0778 24.9934C21.0778 24.2268 20.4559 23.6053 19.6887 23.6053C18.9216 23.6053 18.2997 24.2268 18.2997 24.9934C18.2997 25.76 18.9216 26.3814 19.6887 26.3814Z" fill="#F9D162"/>
<path d="M107.114 268.304L85.1233 268.173L77.9589 268.131C76.7278 268.124 75.7184 268.592 75.7049 269.176L75.6761 270.333L75.4347 279.612C75.4163 280.192 76.4016 280.674 77.6326 280.68C86.6029 282.146 95.7395 282.294 104.753 281.119C105.428 281.038 106.107 280.948 106.79 280.85C107.206 280.856 107.622 280.8 108.021 280.683C108.63 280.495 109.031 280.174 109.042 279.808L109.074 278.591L109.092 277.841L109.312 269.372C109.326 268.788 108.339 268.31 107.114 268.304Z" fill="#E6E6E6"/>
<path d="M105.489 269.094L84.567 268.973L79.5451 268.943C78.3943 268.936 77.4472 269.373 77.4328 269.918L77.4143 270.631L77.2001 278.889C77.1857 279.434 78.1073 279.883 79.2581 279.89C86.5204 280.639 93.2598 281.021 98.0044 279.999C101.458 280.016 104.505 279.134 106.13 277.813C106.152 277.796 106.172 277.782 106.194 277.766C106.206 277.755 106.226 277.741 106.239 277.73C106.57 277.486 106.845 277.175 107.046 276.816C107.247 276.458 107.37 276.061 107.405 275.651L107.547 270.095C107.561 269.55 106.64 269.101 105.489 269.094Z" fill="white"/>
<path d="M86.0786 275.15C85.4373 274.695 85.3702 274.076 86.1409 273.64C86.9551 273.18 88.2297 273.109 89.3533 273.325C90.6086 273.566 91.6318 274.022 92.9504 274.202C94.1044 274.36 95.4343 274.292 96.3093 273.873C96.9367 273.573 96.0036 273.085 95.3732 273.387C94.3358 273.884 92.7973 273.503 91.7656 273.208C90.4775 272.84 89.1667 272.46 87.5991 272.558C84.7471 272.736 83.2593 274.328 84.8483 275.456C85.3395 275.805 86.576 275.503 86.0786 275.15V275.15Z" fill="#E6E6E6"/>
<path d="M99.1127 274.301C99.8799 274.301 100.502 274.007 100.502 273.643C100.502 273.279 99.8799 272.985 99.1127 272.985C98.3455 272.985 97.7236 273.279 97.7236 273.643C97.7236 274.007 98.3455 274.301 99.1127 274.301Z" fill="#E6E6E6"/>
<path d="M1.24571 107.422C-0.665038 99.4027 -0.346383 91.5042 2.92552 83.7657C2.96006 83.287 3.18323 82.8415 3.54609 82.5269C3.90894 82.2124 4.38184 82.0545 4.86104 82.0879L22.7399 83.3556C23.219 83.3901 23.6648 83.6132 23.9796 83.9758C24.2944 84.3383 24.4524 84.8109 24.4189 85.2897L22.7391 108.946C22.7046 109.425 22.4814 109.87 22.1185 110.185C21.7557 110.499 21.2828 110.657 20.8036 110.624L2.92476 109.356C2.44564 109.322 1.99979 109.099 1.68502 108.736C1.37024 108.373 1.21226 107.901 1.24571 107.422Z" fill="#F2F2F2"/>
<path d="M3.12451 100.374C1.59536 96.4223 2.57308 90.9874 4.20444 85.1657C4.23678 84.7173 4.44578 84.3 4.78561 84.0055C5.12544 83.7109 5.56833 83.563 6.01711 83.5944L21.3825 84.6838C21.8312 84.7161 22.2488 84.925 22.5436 85.2646C22.8384 85.6041 22.9864 86.0467 22.955 86.4952L21.4602 107.546C21.4279 107.994 21.2188 108.412 20.879 108.706C20.5392 109.001 20.0963 109.149 19.6475 109.117L10.129 108.442C8.13025 108.298 6.2703 107.368 4.95717 105.855C3.64404 104.343 2.98495 102.372 3.12451 100.374Z" fill="white"/>
<path d="M13.7623 101.405C13.293 101.325 12.8236 101.244 12.3543 101.164C12.5705 100.654 12.6953 100.11 12.723 99.5565C12.9451 96.5958 12.9675 93.6068 13.086 90.6401C13.0829 90.5316 13.0485 90.4263 12.9869 90.3369C12.9253 90.2475 12.8391 90.1779 12.7387 90.1363C12.6384 90.0948 12.5281 90.0832 12.4213 90.1028C12.3145 90.1225 12.2156 90.1726 12.1367 90.2471C10.958 91.2227 9.77925 92.1983 8.60053 93.1738C8.0488 93.6305 8.83945 94.4129 9.38701 93.9597C10.233 93.2595 11.0791 92.5593 11.9251 91.8591C11.8474 93.803 11.7698 95.7469 11.6921 97.6909C11.6549 98.6238 11.7684 99.7568 11.3861 100.634C11.3339 100.752 11.2656 100.863 11.1833 100.963C10.6637 100.873 10.1441 100.784 9.62446 100.695C9.25074 100.631 8.77588 100.943 8.94035 101.379C9.29802 102.327 10.3524 102.626 11.2564 102.261C11.3361 102.225 11.4132 102.184 11.4872 102.137L13.4666 102.477C14.1667 102.597 14.4675 101.526 13.7623 101.405Z" fill="#F2F2F2"/>
<path d="M66.1266 109.645C64.2158 101.626 64.5345 93.7271 67.8064 85.9886C67.8409 85.5098 68.0641 85.0643 68.427 84.7498C68.7898 84.4352 69.2627 84.2774 69.7419 84.3108L87.6207 85.5785C88.0998 85.613 88.5457 85.836 88.8605 86.1986C89.1752 86.5612 89.3332 87.0337 89.2998 87.5126L87.62 111.169C87.5854 111.648 87.3622 112.093 86.9994 112.408C86.6365 112.722 86.1636 112.88 85.6844 112.847L67.8056 111.579C67.3265 111.544 66.8807 111.321 66.5659 110.959C66.2511 110.596 66.0931 110.124 66.1266 109.645Z" fill="#F2F2F2"/>
<path d="M68.0054 102.597C66.4762 98.6452 67.4539 93.2102 69.0853 87.3885C69.1176 86.9401 69.3266 86.5229 69.6665 86.2283C70.0063 85.9337 70.4492 85.7859 70.898 85.8172L86.2633 86.9067C86.712 86.939 87.1296 87.1478 87.4244 87.4874C87.7192 87.827 87.8672 88.2696 87.8359 88.718L86.3411 109.769C86.3087 110.217 86.0997 110.634 85.7599 110.929C85.42 111.224 84.9771 111.371 84.5283 111.34L75.0098 110.665C73.0111 110.521 71.1512 109.591 69.838 108.078C68.5249 106.566 67.8658 104.594 68.0054 102.597Z" fill="white"/>
<path d="M78.036 98.5832C78.2402 98.4879 78.4335 98.3707 78.6125 98.2339C79.089 97.8412 79.4411 97.3189 79.6263 96.7303C79.8116 96.1416 79.8219 95.5119 79.6561 94.9175C78.9352 92.2708 75.7669 92.2547 73.5796 92.5731C72.874 92.6759 73.174 93.747 73.8753 93.6449C75.3494 93.4302 77.6636 93.2568 78.4557 94.8656C78.6365 95.2436 78.7008 95.6667 78.6406 96.0812C78.5803 96.4958 78.3981 96.8831 78.1171 97.1939C77.7811 97.5308 77.3388 97.7409 76.8653 97.7886C76.4067 97.5893 75.9087 97.4965 75.409 97.5172C74.8936 97.5415 74.6064 98.2905 75.1283 98.5527C75.5901 98.7826 76.099 98.9025 76.6149 98.903C77.0427 99.1092 77.4001 99.4372 77.6419 99.8458C77.8838 100.254 77.9994 100.725 77.9743 101.199C77.9251 101.524 77.8121 101.835 77.6419 102.116C77.4717 102.397 77.2477 102.641 76.9827 102.835C76.7177 103.029 76.4169 103.169 76.0977 103.246C75.7785 103.323 75.4471 103.337 75.1226 103.286C74.4237 103.145 74.1247 104.217 74.8269 104.358C75.3063 104.448 75.799 104.44 76.2753 104.335C76.7517 104.23 77.2018 104.03 77.5986 103.746C77.9954 103.463 78.3307 103.102 78.5843 102.686C78.8378 102.269 79.0044 101.806 79.074 101.323C79.1182 100.818 79.0478 100.309 78.868 99.8349C78.6883 99.3605 78.4039 98.9327 78.036 98.5832Z" fill="#F2F2F2"/>
<path d="M100.882 261.35L94.5918 261.349L91.5995 237.104L100.883 237.105L100.882 261.35Z" fill="#FFB6B6"/>
<path d="M101.104 267.907L81.7599 267.906V267.662C81.76 265.666 82.5533 263.753 83.9653 262.342C85.3772 260.931 87.2922 260.138 89.289 260.138H89.2895L92.8229 257.46L99.4154 260.139L101.104 260.139L101.104 267.907Z" fill="#2F2E41"/>
<path d="M129.801 274.687L123.51 274.686L120.518 250.441L129.802 250.442L129.801 274.687Z" fill="#FFB6B6"/>
<path d="M130.022 281.244L110.678 281.243V280.999C110.678 279.004 111.472 277.09 112.884 275.679C114.296 274.268 116.211 273.476 118.207 273.475H118.208L121.741 270.797L128.334 273.476L130.022 273.476L130.022 281.244Z" fill="#2F2E41"/>
<path d="M52.4072 80.7943C52.8393 81.2769 53.3712 81.6599 53.9659 81.9169C54.5607 82.1738 55.2043 82.2986 55.8521 82.2826C56.4999 82.2666 57.1365 82.1102 57.7178 81.8242C58.2992 81.5382 58.8115 81.1294 59.2192 80.626L80.6675 86.7268L83.8148 81.2135L58.2873 74.1536C57.3884 73.5309 56.2922 73.2593 55.2063 73.3903C54.1204 73.5213 53.1203 74.0457 52.3956 74.8642C51.6708 75.6828 51.2717 76.7385 51.2738 77.8315C51.276 78.9244 51.6792 79.9786 52.4072 80.7943Z" fill="#FFB6B6"/>
<path d="M108.183 131.822L85.6144 183.385L83.0192 191.535L90.8656 248.743L103.53 248.125L103.502 240.789C103.502 240.789 100.488 239.156 103.492 238.269C106.496 237.381 106.37 235.129 103.467 231.81C100.564 228.49 103.331 196.722 103.331 196.722C103.331 196.722 115.283 185.285 113.981 182.298C112.679 179.31 115.096 179.31 115.096 179.31C115.096 179.31 117.673 178.849 117.771 177.598C117.869 176.346 119.779 173.829 119.779 173.829L119.11 261.937H130.038C130.038 261.937 135.034 253.641 134.052 251.856C133.07 250.07 131.697 249.895 134.052 247.76C136.407 245.625 139.863 247.372 138.32 243.349C136.778 239.327 137.174 195.916 137.174 195.916C137.174 195.916 143.253 170.725 139.497 169.014C135.741 167.304 137.609 167.545 139.826 165.202C142.044 162.858 138.283 163.072 140.164 161.298C142.044 159.524 142.12 138.643 142.12 138.643L108.183 131.822Z" fill="#2F2E41"/>
<path d="M143.822 146.338C128.002 146.3 114.429 149.853 98.6091 149.816C99.6398 142.689 103.242 131.516 104.272 124.387C105.721 114.359 104.597 108.374 106.043 98.3462C106.187 97.3644 106.328 96.3864 106.469 95.4046C107.04 91.4406 105.672 87.4765 108.126 83.2901C109.172 81.5044 110.911 79.6817 113.791 77.7997C119.775 78.4073 119.671 75.7102 125.655 76.3178L127.635 80.2596C127.887 81.7564 128.795 82.7307 130.026 83.4679C132.558 84.998 136.459 85.5315 138.802 87.6024C141.746 90.2032 141.549 94.3636 140.674 98.424C140.363 99.8689 139.966 101.299 139.592 102.644C136.578 113.479 140.43 121.745 143.571 131.796C143.869 132.749 141.048 136.435 141.347 137.353C141.854 138.909 143.668 140.845 143.379 141.897C143.022 143.199 142.665 144.424 143.822 146.338Z" fill="#F9D162"/>
<path d="M140.674 98.424L106.043 98.3462L104.93 98.3425L63.8604 83.2639L69.1161 83.442L71.5556 77.8219L72.7309 75.1211L96.937 83.2049L108.126 83.2901L129.222 83.4457C129.492 83.4494 129.759 83.4568 130.026 83.468C132.558 84.998 136.459 85.5315 138.802 87.6024C141.746 90.2032 141.549 94.3636 140.674 98.424Z" fill="#F9D162"/>
<path d="M117.014 75.2425C123.229 75.2425 128.268 70.2076 128.268 63.9967C128.268 57.7858 123.229 52.7508 117.014 52.7508C110.798 52.7508 105.76 57.7858 105.76 63.9967C105.76 70.2076 110.798 75.2425 117.014 75.2425Z" fill="#FFB6B6"/>
<path d="M115.414 73.6629L116.331 76.5919C118.364 75.5892 124.131 74.1978 125.824 72.691C127.516 71.1841 128.826 69.1047 128.906 66.8409C128.947 65.6717 128.664 64.4923 128.858 63.3386C129.078 62.0351 129.883 60.905 130.252 59.6354C130.596 58.3056 130.467 56.8973 129.885 55.6528C129.303 54.4083 128.305 53.4054 127.063 52.8167C125.197 51.9974 123.064 52.2274 121.036 52.0294C119.008 51.8314 116.745 50.9146 116.175 48.9599C115.961 48.2291 115.986 47.3674 115.332 46.8889C115.004 46.6696 114.606 46.5795 114.215 46.636C113.824 46.6924 113.468 46.8915 113.215 47.1947C113.185 47.2288 113.156 47.2633 113.129 47.2981C111.412 49.4501 108.176 49.6099 106.483 47.4393C106.373 47.2975 106.266 47.1524 106.164 47.004C105.808 47.3369 105.522 47.737 105.322 48.1811C105.122 48.6253 105.012 49.1046 104.998 49.5915C104.985 50.0784 105.068 50.5632 105.243 51.0177C105.418 51.4723 105.681 51.8877 106.018 52.2399C105.379 52.2402 104.758 52.0251 104.256 51.6294C103.753 51.2337 103.399 50.6804 103.251 50.0589C102.474 51.1308 101.677 52.2487 101.427 53.5484C101.177 54.848 101.641 56.3852 102.834 56.9603C103.442 57.2007 104.096 57.3076 104.749 57.2738C101.673 60.9106 103.519 60.806 109.75 57.3687C112.841 57.4274 111.62 60.2977 111.66 63.387C113.115 63.2473 114.614 63.1107 115.989 63.7229C116.63 63.9925 117.17 64.4562 117.533 65.0487C118.442 66.6092 117.54 68.2312 116.741 69.6506C116.058 70.8639 115.41 72.325 115.977 73.5968" fill="#2F2E41"/>
<path d="M94.9316 167.939C95.4987 167.626 95.991 167.193 96.3744 166.671C96.7578 166.149 97.0231 165.55 97.152 164.915C97.2809 164.281 97.2703 163.626 97.121 162.996C96.9717 162.366 96.6872 161.775 96.2871 161.266L107.023 141.735L102.347 137.439L89.7653 160.73C88.9573 161.467 88.4478 162.474 88.3333 163.561C88.2188 164.648 88.5073 165.739 89.1441 166.627C89.7809 167.516 90.7218 168.14 91.7884 168.382C92.8551 168.624 93.9735 168.466 94.9316 167.939L94.9316 167.939Z" fill="#FFB6B6"/>
<path d="M121.117 76.6031L118.615 121.401L106.558 149.553L98.7107 159.952L99.6027 155.24L94.1935 152.536L93.6855 152.284L100.885 134.06L103.058 128.562L104.07 112.013L105.027 96.3642C105.192 93.6712 105.914 91.0417 107.148 88.6421C108.383 86.2424 110.102 84.1248 112.197 82.4232L118.203 77.5478L121.117 76.6031Z" fill="#F9D162"/>
<path d="M36.8375 76.6725C34.9268 68.6533 35.2454 60.7548 38.5173 53.0164C38.5519 52.5376 38.775 52.0921 39.1379 51.7775C39.5007 51.463 39.9736 51.3051 40.4528 51.3386L58.3317 52.6062C58.8108 52.6408 59.2566 52.8638 59.5714 53.2264C59.8862 53.5889 60.0442 54.0615 60.0107 54.5403L58.3309 78.1965C58.2964 78.6753 58.0732 79.1208 57.7103 79.4353C57.3475 79.7499 56.8746 79.9078 56.3954 79.8743L38.5166 78.6066C38.0374 78.5721 37.5916 78.3491 37.2768 77.9865C36.962 77.6239 36.8041 77.1514 36.8375 76.6725Z" fill="#F2F2F2"/>
<path d="M38.7163 69.6246C37.1872 65.6729 38.1649 60.238 39.7962 54.4163C39.8286 53.9679 40.0376 53.5506 40.3774 53.2561C40.7172 52.9615 41.1601 52.8136 41.6089 52.845L56.9743 53.9344C57.423 53.9667 57.8405 54.1756 58.1354 54.5152C58.4302 54.8547 58.5781 55.2973 58.5468 55.7458L57.052 76.7966C57.0197 77.2449 56.8107 77.6622 56.4708 77.9568C56.131 78.2513 55.6881 78.3992 55.2393 78.3679L45.7208 77.693C43.722 77.549 41.8621 76.6187 40.549 75.1061C39.2358 73.5935 38.5767 71.6222 38.7163 69.6246Z" fill="white"/>
<path d="M48.1651 59.0312C46.5901 58.485 44.8386 59.7297 44.6598 61.3435C44.4572 63.1727 46.4262 64.6167 48.1308 64.1195C48.8166 63.9196 48.5248 62.8467 47.8352 63.0478C46.5857 63.4122 45.2528 62.064 45.9712 60.8587C46.1344 60.5678 46.3825 60.3334 46.6823 60.1869C46.9821 60.0403 47.3194 59.9884 47.6494 60.0382C47.9296 60.1157 48.1878 60.2578 48.4031 60.4531C48.6184 60.6483 48.7849 60.8913 48.8892 61.1624C49.5023 62.543 48.7737 63.9445 47.8081 64.9479C47.2573 65.5202 46.6111 65.9649 46.0175 66.4866C45.729 66.7045 45.4893 66.9803 45.3139 67.2965C45.1386 67.6126 45.0315 67.9619 44.9995 68.3219C45.0151 68.7268 45.1412 69.1197 45.3642 69.4581C45.5872 69.7965 45.8985 70.0675 46.2645 70.2418C47.2128 70.7292 48.2914 70.5742 49.3002 70.412C50.005 70.2987 49.7058 69.2275 49.0045 69.3403C48.1222 69.4822 46.8013 69.6971 46.2422 68.7778C45.7634 67.9906 46.7498 67.2993 47.2873 66.8805C48.638 65.828 50.0039 64.4689 50.2068 62.6793C50.3729 61.2134 49.6273 59.5383 48.1651 59.0312Z" fill="#F9D162"/>
<path d="M140.884 275.579C141.056 275.587 141.227 275.541 141.372 275.449C141.518 275.357 141.632 275.222 141.699 275.063C141.765 274.904 141.781 274.728 141.744 274.56C141.708 274.392 141.62 274.238 141.493 274.121L141.436 273.892C141.443 273.874 141.451 273.856 141.459 273.837C141.632 273.428 141.923 273.078 142.295 272.833C142.667 272.588 143.102 272.458 143.548 272.46C143.993 272.462 144.428 272.595 144.798 272.842C145.168 273.09 145.456 273.442 145.626 273.853C146.308 275.493 147.176 277.137 147.39 278.871C147.484 279.638 147.444 280.415 147.272 281.168C148.873 277.679 149.705 273.886 149.71 270.046C149.71 269.083 149.657 268.12 149.55 267.163C149.461 266.378 149.338 265.599 149.181 264.825C148.323 260.627 146.48 256.693 143.805 253.344C142.51 252.638 141.463 251.553 140.804 250.234C140.566 249.76 140.397 249.253 140.304 248.731C140.45 248.75 140.855 246.527 140.745 246.391C140.948 246.082 141.312 245.929 141.535 245.627C142.64 244.129 144.164 244.391 144.959 246.427C146.658 247.283 146.674 248.704 145.632 250.071C144.969 250.94 144.878 252.117 144.296 253.048C144.356 253.124 144.418 253.198 144.478 253.275C145.572 254.681 146.526 256.191 147.325 257.783C147.131 256 147.363 254.195 148.003 252.519C148.651 250.956 149.866 249.641 150.935 248.29C151.218 247.927 151.603 247.656 152.04 247.512C152.477 247.367 152.947 247.355 153.39 247.477C153.834 247.599 154.232 247.85 154.533 248.198C154.834 248.546 155.025 248.976 155.082 249.432C155.084 249.452 155.086 249.472 155.088 249.492C154.929 249.581 154.774 249.677 154.622 249.777C154.43 249.905 154.282 250.087 154.197 250.3C154.111 250.514 154.092 250.748 154.141 250.972C154.191 251.196 154.308 251.4 154.475 251.558C154.643 251.715 154.854 251.817 155.082 251.852L155.105 251.856C155.048 252.428 154.948 252.995 154.806 253.553C156.178 258.856 153.215 260.788 148.984 260.875C148.891 260.923 148.8 260.97 148.707 261.016C149.51 263.291 150.014 265.66 150.206 268.065C150.314 269.484 150.308 270.909 150.186 272.327L150.194 272.277C150.5 270.7 151.342 269.278 152.576 268.249C154.41 266.744 157 266.19 158.978 264.98C159.189 264.845 159.433 264.773 159.683 264.773C159.933 264.772 160.178 264.843 160.388 264.977C160.599 265.111 160.768 265.302 160.873 265.528C160.979 265.754 161.018 266.006 160.985 266.254L160.977 266.306C160.682 266.426 160.395 266.565 160.117 266.72C159.958 266.81 159.802 266.905 159.65 267.006C159.459 267.133 159.311 267.316 159.225 267.529C159.14 267.742 159.12 267.976 159.17 268.201C159.22 268.425 159.336 268.629 159.504 268.786C159.672 268.943 159.883 269.046 160.11 269.081L160.134 269.085C160.15 269.087 160.165 269.089 160.182 269.092C159.678 270.294 158.971 271.4 158.091 272.363C157.233 276.993 153.547 277.432 149.605 276.084H149.602C149.17 277.962 148.543 279.79 147.732 281.539H141.051C141.027 281.465 141.006 281.389 140.984 281.314C141.602 281.353 142.223 281.316 142.833 281.204C142.337 280.597 141.841 279.984 141.346 279.376C141.335 279.365 141.324 279.353 141.314 279.34C141.063 279.029 140.809 278.721 140.558 278.409L140.558 278.409C140.544 277.456 140.654 276.504 140.883 275.579L140.884 275.579Z" fill="#F2F2F2"/>
<path d="M66.1589 281.559C66.1588 281.617 66.1701 281.675 66.1922 281.728C66.2143 281.782 66.2468 281.83 66.2878 281.871C66.3288 281.912 66.3775 281.945 66.4311 281.967C66.4847 281.989 66.5422 282 66.6002 282H160.507C160.624 282 160.736 281.954 160.819 281.871C160.902 281.788 160.948 281.676 160.948 281.559C160.948 281.442 160.902 281.33 160.819 281.247C160.736 281.165 160.624 281.118 160.507 281.118H66.6002C66.5422 281.118 66.4847 281.129 66.4311 281.152C66.3775 281.174 66.3288 281.206 66.2878 281.247C66.2468 281.288 66.2143 281.337 66.1922 281.39C66.1701 281.444 66.1588 281.501 66.1589 281.559Z" fill="#CCCCCC"/>
<path d="M18.8844 37.9858C18.4204 44.8372 18.6433 52.613 23.9656 57.6956C25.2126 58.8975 26.7019 59.8198 28.3339 60.401C29.0103 60.6392 29.3012 59.5658 28.6296 59.3292C25.8955 58.3662 23.7445 56.2497 22.3114 53.7752C20.6313 50.8744 19.9903 47.528 19.8499 44.211C19.7847 42.1348 19.8337 40.0566 19.9966 37.9858C20.045 37.2719 18.9325 37.2748 18.8844 37.9858V37.9858Z" fill="#3F3D56"/>
<path d="M27.1752 53.6641C28.4944 54.2766 29.8772 54.8997 30.9208 55.941C31.8728 56.891 32.5375 58.2765 32.1518 59.6305C31.5189 61.8519 28.7007 62.6894 26.7358 63.2192C26.5981 63.2623 26.4825 63.3571 26.4135 63.4837C26.3444 63.6103 26.3273 63.7587 26.3656 63.8977C26.4039 64.0367 26.4948 64.1554 26.619 64.2287C26.7432 64.3021 26.8911 64.3244 27.0314 64.2909C29.0081 63.758 31.2244 63.014 32.5155 61.3231C34.0433 59.3222 33.318 56.6848 31.6018 55.0527C30.4962 54.0012 29.1054 53.3399 27.7365 52.7045C27.0915 52.405 26.5259 53.3628 27.1752 53.6641H27.1752Z" fill="#3F3D56"/>
</g>
<defs>
<clipPath id="clip0_8_75">
<rect width="161" height="282" fill="white"/>
</clipPath>
</defs>
</svg>
