<svg width="203" height="173" viewBox="0 0 203 173" fill="none" xmlns="http://www.w3.org/2000/svg">
<path d="M109.505 141.656C145.078 141.656 173.916 112.854 173.916 77.3254C173.916 41.7966 145.078 12.9948 109.505 12.9948C73.9325 12.9948 45.095 41.7966 45.095 77.3254C45.095 112.854 73.9325 141.656 109.505 141.656Z" fill="#3F3D56"/>
<path d="M68.9553 82.4895C70.555 80.5768 72.5557 79.0382 74.816 77.9824C77.0763 76.9266 79.5412 76.3794 82.0365 76.3794C84.5318 76.3794 86.9967 76.9266 89.257 77.9824C91.5174 79.0382 93.518 80.5768 95.1177 82.4895C97.8279 79.9055 99.71 76.5768 100.526 72.9245C101.342 69.2722 101.055 65.4601 99.7022 61.9705C98.349 58.4809 95.9902 55.4704 92.924 53.3198C89.8577 51.1691 86.2218 49.9748 82.476 49.888C78.7302 49.8012 75.0428 50.8257 71.88 52.832C68.7172 54.8383 66.221 57.7362 64.7073 61.1594C63.1935 64.5826 62.73 68.3772 63.3756 72.0634C64.0211 75.7496 65.7465 79.1619 68.3337 81.8687C68.5361 82.0804 68.7433 82.2873 68.9553 82.4895Z" fill="white"/>
<path d="M120.105 82.4895C121.704 80.5768 123.705 79.0382 125.965 77.9824C128.226 76.9267 130.69 76.3794 133.186 76.3794C135.681 76.3794 138.146 76.9267 140.406 77.9824C142.666 79.0382 144.667 80.5768 146.267 82.4895C148.977 79.9055 150.859 76.5768 151.675 72.9245C152.491 69.2722 152.204 65.4602 150.851 61.9705C149.498 58.4809 147.139 55.4704 144.073 53.3198C141.007 51.1691 137.371 49.9748 133.625 49.888C129.879 49.8012 126.192 50.8257 123.029 52.832C119.866 54.8383 117.37 57.7362 115.856 61.1594C114.343 64.5826 113.879 68.3772 114.525 72.0634C115.17 75.7496 116.896 79.1619 119.483 81.8687C119.685 82.0804 119.892 82.2873 120.105 82.4895Z" fill="white"/>
<path d="M75.5738 68.8694C79.1728 68.8694 82.0903 65.9555 82.0903 62.3609C82.0903 58.7663 79.1728 55.8523 75.5738 55.8523C71.9747 55.8523 69.0571 58.7663 69.0571 62.3609C69.0571 65.9555 71.9747 68.8694 75.5738 68.8694Z" fill="#3F3D56"/>
<path d="M126.721 68.8694C130.32 68.8694 133.238 65.9555 133.238 62.3609C133.238 58.7663 130.32 55.8523 126.721 55.8523C123.122 55.8523 120.205 58.7663 120.205 62.3609C120.205 65.9555 123.122 68.8694 126.721 68.8694Z" fill="#3F3D56"/>
<path d="M63.0921 100.976C67.2771 100.976 70.6697 97.588 70.6697 93.4081C70.6697 89.2282 67.2771 85.8398 63.0921 85.8398C58.9071 85.8398 55.5144 89.2282 55.5144 93.4081C55.5144 97.588 58.9071 100.976 63.0921 100.976Z" fill="#F9D162"/>
<path d="M150.236 100.976C154.421 100.976 157.813 97.588 157.813 93.4081C157.813 89.2282 154.421 85.8398 150.236 85.8398C146.05 85.8398 142.658 89.2282 142.658 93.4081C142.658 97.588 146.05 100.976 150.236 100.976Z" fill="#F9D162"/>
<path d="M106.664 78.2712L100.981 102.868L110.452 93.4084L106.664 78.2712Z" fill="#F9D162"/>
<path d="M135.866 172.875L129.413 167.467L129.564 172.875H127.56L127.399 167.156L118.688 172.875H115.041L127.335 164.805L126.858 147.859L126.503 135.06L128.502 135.005L128.863 147.859L129.338 164.79L138.982 172.875H135.866Z" fill="#3F3D56"/>
<path d="M105.553 172.875L99.1004 167.467L99.2509 172.875H97.2522L97.0918 167.156L88.3797 172.875H84.7328L97.0218 164.805L96.5459 147.859L96.1901 135.06L98.1935 135.005L98.5545 147.859L99.0252 164.79L108.669 172.875H105.553Z" fill="#3F3D56"/>
<path d="M110.452 8.26464C108.685 8.26464 107.126 9.63582 106.084 11.7419C105.165 8.57497 103.235 6.3726 100.98 6.3726C100.827 6.38781 100.675 6.41331 100.525 6.44893C99.6589 3.0677 97.6451 0.696365 95.2971 0.696365C92.1583 0.696365 89.6139 4.93197 89.6139 10.1568C89.6139 15.3815 92.1584 19.6171 95.2971 19.6171C95.4503 19.6019 95.6023 19.5764 95.7521 19.5408C96.6186 22.922 98.6325 25.2934 100.98 25.2934C102.748 25.2934 104.307 23.9222 105.349 21.8162C106.268 24.9831 108.198 27.1854 110.452 27.1854C113.591 27.1854 116.136 22.9498 116.136 17.725C116.136 12.5002 113.591 8.26464 110.452 8.26464Z" fill="#3F3D56"/>
<path d="M48.7775 79.3271L13.2959 73.5791C11.5078 73.2895 9.68715 72.9992 7.89344 73.2514C6.09974 73.5035 4.30417 74.3855 3.38977 75.9472C2.95032 76.6978 2.73727 77.5591 2.77621 78.4277C2.81515 79.2963 3.10444 80.1351 3.6093 80.8435C4.11416 81.5518 4.81312 82.0994 5.62213 82.4204C6.43113 82.7415 7.31574 82.8224 8.16966 82.6533C6.23291 82.5906 4.19727 82.5491 2.47863 83.4431C0.759987 84.3371 -0.456969 86.5087 0.380926 88.2538C0.632353 88.7355 0.972486 89.1654 1.38351 89.5211C2.67688 90.679 4.27209 91.4474 5.98453 91.7374C7.69697 92.0275 9.45663 91.8273 11.0599 91.1601C9.75365 93.031 7.16168 93.3089 4.91954 93.7421C2.67741 94.1753 0.0854254 95.4419 0.00210238 97.7213C-0.0915224 100.282 2.96029 101.644 5.47265 102.165C18.8878 104.922 32.8127 103.788 45.6038 98.8981C47.0413 98.4041 48.402 97.7102 49.6456 96.837C51.0396 95.7797 52.099 94.3437 52.697 92.7007C53.295 91.0577 53.4063 89.2774 53.0175 87.5729C52.6288 85.8684 51.7564 84.3119 50.5049 83.0897C49.2534 81.8676 47.6757 81.0315 45.9608 80.6816" fill="#3F3D56"/>
<path d="M201.928 108.374C196.072 96.0085 186.796 85.5739 175.196 78.302C173.936 77.4514 172.563 76.7822 171.117 76.3143C169.433 75.8369 167.647 75.8543 165.973 76.3643C164.299 76.8744 162.808 77.8554 161.677 79.1902C160.547 80.5249 159.825 82.1567 159.6 83.8902C159.374 85.6238 159.653 87.3856 160.403 88.9649L157.627 87.5304C163.201 98.1233 168.776 108.716 174.351 119.309C175.193 120.91 176.055 122.538 177.335 123.818C178.615 125.099 180.4 126.002 182.199 125.793C182.913 125.713 183.598 125.463 184.195 125.064C184.793 124.665 185.286 124.129 185.633 123.5C185.98 122.871 186.171 122.169 186.189 121.451C186.208 120.733 186.054 120.022 185.741 119.376C186.523 120.477 187.552 121.381 188.745 122.016C190.494 122.851 192.963 122.517 193.856 120.799C194.09 120.309 194.23 119.779 194.267 119.237C194.417 117.509 194.073 115.774 193.276 114.232C192.479 112.691 191.261 111.407 189.764 110.528C192.046 110.446 193.826 112.348 195.52 113.878C197.214 115.407 199.786 116.715 201.66 115.412C203.766 113.947 203.021 110.693 201.928 108.374Z" fill="#3F3D56"/>
</svg>
